{"title":"Married In A Year 2011 RERiP DVDRip XviD-FiCO","uid":6148480,"size":729893725,"categoryP":"video","categoryS":"movies","magnet":"?xt=urn:btih:e411696f09e3b0833b2741c32e4a8efc38e1a0d9&amp;dn=Married+In+A+Year+2011+RERiP+DVDRip+XviD-FiCO&amp;tr=udp%3A%2F%2Ftracker.openbittorrent.com%3A80&amp;tr=udp%3A%2F%2Fopen.demonii.com%3A1337&amp;tr=udp%3A%2F%2Ftracker.coppersurfer.tk%3A6969&amp;tr=udp%3A%2F%2Fexodus.desync.com%3A6969","seeders":0,"leechers":1,"uploader":"TheCloon","files":-1,"time":1296780692,"description":"Plot: You too can find true love. Just ask the thousands of happy couples \nbrought together by Patti Stanger, CEO of the Millionaire's Club matchmaking \nservice and star of Bravo's hit TV series &quot;Millionaire Matchmaker&quot;. Now Patti \ncan help your marriage dreams come true with Married in a Year - her proven, \neasy-to-follow 12-month action plan for finding love. With her expert knowledge \nand up-beat, no-nonsense approach, Patti will motivate and guide you through \nall the stages.\n\nMarried.In.A.Year.2011.RERiP.DVDRip.XviD-FiCO\n &lt;a href=&quot;\nhttp://www.imdb.com/title/tt1756617/&quot; rel=&quot;nofollow&quot; target=&quot;_NEW&quot;&gt;\nhttp://www.imdb.com/title/tt1756617/&lt;/a&gt;\nSubtitles: English Spanish\nDate: 2011.02\n\nDirector: Neil Steinberg\nGenre: Romance\n\nCast\nCredited cast:\nSascha Alexander \tSascha Alexander \t... \t\nBeth\nDr. Pat Allen \tDr. Pat Allen \t... \t\nHerself\nMatthew Bennett \tMatthew Bennett \t... \t\nHimself\nDavid Boyd \tDavid Boyd \t... \t\nSports Bar Guys\nLouis Geno Brooks \tLouis Geno Brooks \t... \t\nSports Bar Guys\nJamie Burke \tJamie Burke \t... \t\nOpening Monologue\nAnthony Cutolo \tAnthony Cutolo \t... \t\nBobby The Bragger\nSara A. Emami \tSara A. Emami \t... \t\nOpening Monologue\nAnne-Mari Harris \tAnne-Mari Harris \t... \t\nOpening Monologue\nJake Kaufman \tJake Kaufman \t... \t\nJames\nKenny Kelleher \tKenny Kelleher \t... \t\nKenny The Critic\nMichael Legum \tMichael Legum \t... \t\nWally the Wounded\nJason Lockhart \tJason Lockhart \t... \t\nPaulie The Pouncer\nMara Marini \tMara Marini \t... \t\nTracy\nKatherine McKalip \tKatherine McKalip \t... \t\nOpening Monologue\nFull cast and crew Ã‚Â» \n\nStats:\nGeneral\nFormat                           : AVI\nFormat/Info                      : Audio Video Interleave\nFile size                        : 696 MiB\nDuration                         : 1h 12mn\nOverall bit rate                 : 1 342 Kbps\nWriting application              : VirtualDubMod 1.5.10.2 (build 2542/release)\nWriting library                  : VirtualDubMod build 2542/release\n\nVideo\nID                               : 0\nFormat                           : MPEG-4 Visual\nFormat profile                   : Advanced Simple@L5\nFormat settings, BVOP            : Yes\nFormat settings, QPel            : No\nFormat settings, GMC             : No warppoints\nFormat settings, Matrix          : Default (H.263)\nCodec ID                         : XVID\nCodec ID/Hint                    : XviD\nDuration                         : 1h 12mn\nBit rate                         : 1 205 Kbps\nWidth                            : 608 pixels\nHeight                           : 336 pixels\nDisplay aspect ratio             : 16:9\nFrame rate                       : 29.970 fps\nResolution                       : 8 bits\nColorimetry                      : 4:2:0\nScan type                        : Progressive\nBits/(Pixel*Frame)               : 0.197\nStream size                      : 625 MiB (90%)\nWriting library                  : XviD 1.2.1 (UTC 2008-12-04)\n\nAudio\nID                               : 1\nFormat                           : MPEG Audio\nFormat version                   : Version 1\nFormat profile                   : Layer 3\nMode                             : Joint stereo\nFormat_Settings_ModeExtension    : MS Stereo\nCodec ID                         : 55\nCodec ID/Hint                    : MP3\nDuration                         : 1h 12mn\nBit rate mode                    : Variable\nBit rate                         : 124 Kbps\nNominal bit rate                 : 128 Kbps\nChannel(s)                       : 2 channels\nSampling rate                    : 48.0 KHz\nStream size                      : 64.2 MiB (9%)\nAlignment                        : Aligned on interleaves\nInterleave, duration             : 24 ms (0.72 video frame)\nInterleave, preload duration     : 148 ms\nWriting library                  : LAME3.90.\nEncoding settings                : -m j -V 4 -q 2 -lowpass 17.6 --abr 128\n\n\nRelease notes:\nSorry, there was some parts that required 30fps.","torrent":{"xt":"urn:btih:e411696f09e3b0833b2741c32e4a8efc38e1a0d9","amp;dn":"Married+In+A+Year+2011+RERiP+DVDRip+XviD-FiCO","amp;tr":["udp%3A%2F%2Ftracker.openbittorrent.com%3A80","udp%3A%2F%2Fopen.demonii.com%3A1337","udp%3A%2F%2Ftracker.coppersurfer.tk%3A6969","udp%3A%2F%2Fexodus.desync.com%3A6969"],"infoHash":"e411696f09e3b0833b2741c32e4a8efc38e1a0d9","infoHashBuffer":{"type":"Buffer","data":[228,17,105,111,9,227,176,131,59,39,65,195,46,74,142,252,56,225,160,217]},"announce":[],"urlList":[]}}